#!OML:ASF X:\für Bonn\!DataBase\2005_08_12_Daniel\c3d\Daniel.ASF
:FULLY-SPECIFIED
:DEGREES
32
root -0.365661 13.6949 -0.683991 8.07687 -87.0104 -27.8804
lowerback 41.1679 -3.08826 4.98238
upperback 3.01213 -2.89356 -3.36591
thorax -17.1155 -1.90734 -4.91053
lowerneck 1.86057 0.494562 -1.19009
upperneck 1.72715 0.602072 2.31696
head 0.208418 0.289594 0.899179
rclavicle 4.17448e-015 1.35174e-014
rhumerus 60.047 2.49451 -93.2756
rradius 6.73632
rwrist 58.9438
rhand -17.5485 8.64436
rfingers 7.12502
rthumb 8.70601 -21.1561
lclavicle 4.17448e-015 1.35174e-014
lhumerus 60.9004 5.32528 101.98
lradius 9.40596
lwrist -81.4052
lhand -14.7357 -2.52678
lfingers 7.12502
lthumb 11.4197 27.1422
rfemur -25.8515 -18.5225 7.68405
rtibia 88.6918
rfoot -24.131 17.1994
rtoes -9.9676
lfemur -28.8628 9.24065 -7.60818
ltibia 89.6582
lfoot -32.3364 -18.7531
ltoes -0.039212
33
root -0.341467 13.5065 -0.684643 8.51126 -86.9737 -28.5052
lowerback 41.8044 -3.13393 5.03283
upperback 3.02751 -2.91371 -3.36325
thorax -17.3205 -1.92549 -4.90941
lowerneck 1.97125 0.481899 -1.1096
upperneck 1.59314 0.589511 2.2239
head 0.150219 0.282837 0.856177
rclavicle -1.08338e-014 3.18055e-015
rhumerus 60.6063 2.49828 -93.2525
rradius 6.34888
rwrist 58.7562
rhand -17.4643 8.42373
rfingers 7.12502
rthumb 8.78731 -21.3733
lclavicle -1.08338e-014 3.18055e-015
lhumerus 61.2105 5.3221 102.414
lradius 9.41226
lwrist -82.2025
lhand -14.5872 -2.43091
lfingers 7.12502
lthumb 11.5629 27.2301
rfemur -27.1141 -19.2511 7.22138
rtibia 90.9942
rfoot -23.89 18.0514
rtoes -9.75546
lfemur -30.2153 9.88122 -7.13749
ltibia 91.9072
lfoot -32.1211 -19.6765
ltoes 0.26187
34
root -0.318594 13.3185 -0.685894 9.03405 -86.9312 -29.2369
lowerback 42.4451 -3.18893 5.08186
upperback 3.04503 -2.94494 -3.3563
thorax -17.5212 -1.948 -4.8967
lowerneck 2.06877 0.480862 -1.06082
upperneck 1.47229 0.591584 2.14406
head 0.0978886 0.283402 0.822772
rclavicle 1.54058e-014 -1.66979e-014
rhumerus 61.2054 2.5417 -93.2439
rradius 5.89347
rwrist 58.5356
rhand -17.3641 8.20419
rfingers 7.12502
rthumb 8.88402 -21.5888
lclavicle 1.54058e-014 -1.66979e-014
lhumerus 61.5216 5.35242 102.835
lradius 9.42514
lwrist -83.0269
lhand -14.4624 -2.36359
lfingers 7.12502
lthumb 11.6832 27.2906
rfemur -28.3314 -20.0205 6.7349
rtibia 93.2584
rfoot -23.6057 18.8896
rtoes -9.58586
lfemur -31.5586 10.5479 -6.63569
ltibia 94.1136
lfoot -31.7123 -20.6426
ltoes 0.542173
35
root -0.297776 13.1298 -0.687775 9.36824 -86.908 -29.756
lowerback 43.0367 -3.2267 5.10828
upperback 3.06925 -2.96737 -3.35334
thorax -17.6919 -1.96482 -4.88193
lowerneck 2.10667 0.482783 -1.02271
upperneck 1.39853 0.596671 2.08696
head 0.069529 0.285899 0.798479
rclavicle 6.65929e-015 -7.95139e-015
rhumerus 61.798 2.55228 -93.22
rradius 5.46233
rwrist 58.4012
rhand -17.307 7.99326
rfingers 7.12502
rthumb 8.93908 -21.7974
lclavicle 6.65929e-015 -7.95139e-015
lhumerus 61.8552 5.37852 103.251
lradius 9.44968
lwrist -83.794
lhand -14.3073 -2.2865
lfingers 7.12502
lthumb 11.8328 27.3592
rfemur -29.548 -20.8281 6.20288
rtibia 95.4829
rfoot -23.3118 19.7709
rtoes -9.40108
lfemur -32.9332 11.2828 -6.13657
ltibia 96.2872
lfoot -31.3669 -21.5573
ltoes 0.656429
36
root -0.277229 12.9412 -0.689434 9.55765 -86.8848 -30.1557
lowerback 43.6504 -3.26325 5.14193
upperback 3.09502 -2.98462 -3.35272
thorax -17.864 -1.98029 -4.87574
lowerneck 2.11461 0.470627 -0.994676
upperneck 1.33028 0.58301 2.02491
head 0.0480552 0.279255 0.774575
rclavicle -1.37161e-014 0
rhumerus 62.3059 2.56314 -93.1985
rradius 5.18726
rwrist 58.366
rhand -17.2092 7.72578
rfingers 7.12502
rthumb 9.03344 -22.0608
lclavicle -1.37161e-014 0
lhumerus 62.2108 5.37372 103.685
lradius 9.42179
lwrist -84.5297
lhand -14.2405 -2.20786
lfingers 7.12502
lthumb 11.8972 27.4341
rfemur -30.7162 -21.6714 5.6238
rtibia 97.6736
rfoot -23.033 20.6666
rtoes -9.27497
lfemur -34.2728 12.0633 -5.61957
ltibia 98.4154
lfoot -30.9678 -22.4953
ltoes 0.831147
37
root -0.258224 12.7525 -0.691142 10.2495 -86.8461 -31.0762
lowerback 44.2566 -3.31672 5.19008
upperback 3.12047 -3.013 -3.33838
thorax -18.0307 -2.00075 -4.85565
lowerneck 2.14505 0.470836 -0.967422
upperneck 1.26346 0.585573 1.94998
head 0.0231399 0.280597 0.746727
rclavicle -2.88238e-015 1.35174e-014
rhumerus 62.7491 2.61219 -93.1888
rradius 5.02115
rwrist 58.3602
rhand -17.0802 7.50809
rfingers 7.12502
rthumb 9.15796 -22.2731
lclavicle -2.88238e-015 1.35174e-014
lhumerus 62.5724 5.40081 104.113
lradius 9.38447
lwrist -85.1184
lhand -14.1761 -2.15866
lfingers 7.12502
lthumb 11.9593 27.4797
rfemur -31.8308 -22.5743 5.03251
rtibia 99.8267
rfoot -22.7671 21.5514
rtoes -9.21405
lfemur -35.5675 12.8646 -5.02519
ltibia 100.516
lfoot -30.5033 -23.5092
ltoes 1.16342
38
root -0.240434 12.562 -0.692919 10.4293 -86.8226 -31.4875
lowerback 44.8509 -3.35922 5.23539
upperback 3.14863 -3.03482 -3.35146
thorax -18.1883 -2.01926 -4.86907
lowerneck 2.18201 0.464375 -0.933209
upperneck 1.19821 0.579029 1.89896
head -0.00227503 0.277314 0.725185
rclavicle 2.5842e-015 -7.15625e-015
rhumerus 63.1331 2.59071 -93.1777
rradius 4.94474
rwrist 58.4452
rhand -16.9847 7.30154
rfingers 7.12502
rthumb 9.25009 -22.4756
lclavicle 2.5842e-015 -7.15625e-015
lhumerus 62.9311 5.38811 104.525
lradius 9.31511
lwrist -85.6727
lhand -14.198 -2.06706
lfingers 7.12502
lthumb 11.9382 27.5725
rfemur -32.9182 -23.5369 4.34725
rtibia 101.952
rfoot -22.4565 22.5339
rtoes -9.05335
lfemur -36.8066 13.748 -4.41682
ltibia 102.578
lfoot -30.0653 -24.5877
ltoes 1.34653
39
root -0.224803 12.3731 -0.695553 10.82 -86.8012 -32.1374
lowerback 45.4392 -3.39805 5.26779
upperback 3.18744 -3.05579 -3.34712
thorax -18.3245 -2.03566 -4.85599
lowerneck 2.22779 0.465846 -0.922958
upperneck 1.1365 0.582328 1.85541
head -0.0283147 0.278812 0.709908
rclavicle -2.5842e-015 -1.51076e-014
rhumerus 63.5194 2.61214 -93.1657
rradius 4.88524
rwrist 58.6231
rhand -16.9606 7.07228
rfingers 7.12502
rthumb 9.27337 -22.7038
lclavicle -2.5842e-015 -1.51076e-014
lhumerus 63.2789 5.39288 104.952
lradius 9.28093
lwrist -86.1697
lhand -14.2166 -2.01829
lfingers 7.12502
lthumb 11.9203 27.6223
rfemur -33.9152 -24.5356 3.61379
rtibia 104.023
rfoot -22.195 23.5623
rtoes -9.02201
lfemur -37.9813 14.6807 -3.74657
ltibia 104.602
lfoot -29.5939 -25.6615
ltoes 1.57048
40
root -0.209748 12.1834 -0.697831 11.1053 -86.7698 -32.679
lowerback 46.0104 -3.44384 5.29191
upperback 3.21812 -3.08669 -3.33168
thorax -18.4619 -2.05494 -4.82085
lowerneck 2.34795 0.479799 -0.963841
upperneck 1.03884 0.601014 1.82498
head -0.077927 0.287345 0.706993
rclavicle -2.68359e-015 1.43125e-014
rhumerus 63.8523 2.63396 -93.1303
rradius 4.87926
rwrist 58.7659
rhand -16.9571 6.85438
rfingers 7.12502
rthumb 9.27677 -22.9215
lclavicle -2.68359e-015 1.43125e-014
lhumerus 63.6204 5.44902 105.375
lradius 9.24426
lwrist -86.6357
lhand -14.332 -1.96551
lfingers 7.12502
lthumb 11.809 27.6815
rfemur -34.8895 -25.6301 2.7985
rtibia 106.075
rfoot -21.8386 24.6838
rtoes -8.82697
lfemur -39.1426 15.6744 -3.04465
ltibia 106.591
lfoot -29.0799 -26.8053
ltoes 1.85944
41
root -0.195382 11.9935 -0.700316 11.5042 -86.747 -33.3806
lowerback 46.601 -3.48748 5.34749
upperback 3.27154 -3.10499 -3.33824
thorax -18.5742 -2.07227 -4.83333
lowerneck 2.44946 0.483403 -0.978459
upperneck 0.934892 0.606546 1.81931
head -0.126264 0.289433 0.70749
rclavicle 8.15017e-015 7.95139e-015
rhumerus 64.2508 2.6043 -93.1039
rradius 4.79331
rwrist 58.9375
rhand -17.0528 6.65668
rfingers 7.12502
rthumb 9.18437 -23.1233
lclavicle 8.15017e-015 7.95139e-015
lhumerus 63.9548 5.45102 105.786
lradius 9.2334
lwrist -87.0673
lhand -14.4214 -1.96831
lfingers 7.12502
lthumb 11.7227 27.6837
rfemur -35.7503 -26.7536 1.90492
rtibia 108.065
rfoot -21.3899 25.9129
rtoes -8.54828
lfemur -40.2232 16.7447 -2.26249
ltibia 108.541
lfoot -28.5475 -28.0218
ltoes 2.07635
42
root -0.182045 11.8027 -0.703287 11.9621 -86.7238 -34.1367
lowerback 47.1748 -3.53388 5.38802
upperback 3.31064 -3.13177 -3.33778
thorax -18.6958 -2.0917 -4.82577
lowerneck 2.66013 0.4957 -1.00574
upperneck 0.762109 0.623478 1.8082
head -0.213774 0.296528 0.708281
rclavicle 2.08724e-015 1.11319e-014
rhumerus 64.5653 2.60791 -93.0913
rradius 4.77685
rwrist 59.0802
rhand -17.1453 6.51348
rfingers 7.12502
rthumb 9.09511 -23.2704
lclavicle 2.08724e-015 1.11319e-014
lhumerus 64.2445 5.50388 106.165
lradius 9.22222
lwrist -87.4845
lhand -14.6484 -1.9315
lfingers 7.12502
lthumb 11.5038 27.7328
rfemur -36.588 -27.9637 0.945278
rtibia 110.036
rfoot -20.9252 27.1891
rtoes -8.28151
lfemur -41.2859 17.9119 -1.41798
ltibia 110.464
lfoot -27.962 -29.2853
ltoes 2.32692
43
root -0.169357 11.6096 -0.706008 12.1986 -86.7045 -34.7087
lowerback 48.6057 -3.62084 5.39536
upperback 2.30351 -3.15869 -3.39437
thorax -18.568 -2.07716 -4.72333
lowerneck 2.8067 0.506315 -1.03539
upperneck 0.635378 0.637701 1.78349
head -0.276789 0.302829 0.705431
rclavicle -4.47266e-015 -1.27222e-014
rhumerus 64.8705 2.59513 -93.0447
rradius 4.81984
rwrist 59.1609
rhand -17.2026 6.39967
rfingers 7.12502
rthumb 9.03989 -23.3866
lclavicle -4.47266e-015 -1.27222e-014
lhumerus 64.551 5.55094 106.583
lradius 9.23982
lwrist -87.9119
lhand -14.8588 -1.90413
lfingers 7.12502
lthumb 11.3009 27.7714
rfemur -37.3185 -29.2812 -0.162298
rtibia 111.983
rfoot -20.398 28.5592
rtoes -8.01061
lfemur -42.2783 19.1506 -0.513938
ltibia 112.371
lfoot -27.3688 -30.6124
ltoes 2.66506
44
root -0.158618 11.4152 -0.709182 12.5547 -86.6939 -35.399
lowerback 49.2269 -3.658 5.42548
upperback 2.30547 -3.17538 -3.393
thorax -18.679 -2.09138 -4.71264
lowerneck 2.97427 0.515017 -1.05642
upperneck 0.527962 0.648828 1.76697
head -0.337472 0.307441 0.703716
rclavicle 5.66536e-015 3.26007e-014
rhumerus 65.1361 2.57633 -93.0155
rradius 4.85825
rwrist 59.2135
rhand -17.2537 6.27587
rfingers 7.12502
rthumb 8.99058 -23.5126
lclavicle 5.66536e-015 3.26007e-014
lhumerus 64.7839 5.61327 106.977
lradius 9.28292
lwrist -88.3342
lhand -15.164 -1.8993
lfingers 7.12502
lthumb 11.0066 27.7921
rfemur -37.9914 -30.6816 -1.35874
rtibia 113.909
rfoot -19.9102 29.9798
rtoes -7.82356
lfemur -43.2344 20.5212 0.478538
ltibia 114.256
lfoot -26.7754 -32.0133
ltoes 2.92669
